<?xml version="1.0" encoding="UTF-8" standalone="no"?>
<!DOCTYPE svg PUBLIC "-//W3C//DTD SVG 1.1//EN" "http://www.w3.org/Graphics/SVG/1.1/DTD/svg11.dtd">
<svg width="100%" height="100%" viewBox="0 0 1024 1024" version="1.1" xmlns="http://www.w3.org/2000/svg" xmlns:xlink="http://www.w3.org/1999/xlink" xml:space="preserve" xmlns:serif="http://www.serif.com/" style="fill-rule:evenodd;clip-rule:evenodd;stroke-linejoin:round;stroke-miterlimit:2;">
    <g id="Background" transform="matrix(1,0,0,1,84,86)">
        <g>
            <path d="M412.501,14.013C686.257,13.306 712.963,9.619 776.091,60.959C849.901,120.986 840.083,230.171 840.076,320.498C840.044,689.314 845.22,700.043 803.008,761.16C757.617,826.879 675.185,834.52 662.516,835.695C628.237,838.872 228.627,840.449 184.475,834.738C0.385,810.926 15.953,629.391 15.94,588.502C15.806,171.995 14.26,170.349 32.932,126.683C68.182,44.245 140.435,23.141 175.472,18.31C199.138,15.046 199.081,13.403 412.501,14.013Z" style="fill:url(#_Linear1);"/>
            <path d="M412.501,14.013C686.257,13.306 712.963,9.619 776.091,60.959C849.901,120.986 840.083,230.171 840.076,320.498C840.044,689.314 845.22,700.043 803.008,761.16C757.617,826.879 675.185,834.52 662.516,835.695C628.237,838.872 228.627,840.449 184.475,834.738C0.385,810.926 15.953,629.391 15.94,588.502C15.806,171.995 14.26,170.349 32.932,126.683C68.182,44.245 140.435,23.141 175.472,18.31C199.138,15.046 199.081,13.403 412.501,14.013Z" style="fill:url(#_Linear2);"/>
            <g style="filter:url(#_Effect3);">
                <path d="M412.501,14.013C686.257,13.306 712.963,9.619 776.091,60.959C849.901,120.986 840.083,230.171 840.076,320.498C840.044,689.314 845.22,700.043 803.008,761.16C757.617,826.879 675.185,834.52 662.516,835.695C628.237,838.872 228.627,840.449 184.475,834.738C0.385,810.926 15.953,629.391 15.94,588.502C15.806,171.995 14.26,170.349 32.932,126.683C68.182,44.245 140.435,23.141 175.472,18.31C199.138,15.046 199.081,13.403 412.501,14.013ZM412.484,20.013C199.818,19.405 199.874,21.001 176.292,24.253C142.411,28.926 72.536,49.325 38.448,129.042C19.873,172.483 21.807,174.135 21.94,588.5C21.953,628.311 6.004,805.603 185.245,828.788C229.274,834.483 627.778,832.889 661.962,829.72C674.227,828.583 754.128,821.373 798.071,757.75C818.572,728.067 827.502,710.6 831.374,655.793C835.356,599.441 834.06,504.674 834.076,320.498C834.08,275.614 836.558,226.044 829.829,180.238C823.28,135.658 808.001,94.644 772.305,65.614C735.415,35.612 711.245,25.056 640.261,21.439C591.741,18.966 521.865,19.731 412.517,20.013L412.484,20.013Z" style="fill:url(#_Linear4);"/>
            </g>
        </g>
        <g>
            <path d="M254.501,806.037C207.731,805.39 125.731,808.919 78.973,742.174C47.011,696.548 47.65,656.035 47.974,531.501C48.799,214.567 43.358,180.308 64.702,134.595C110.723,36.03 203.876,45.656 339.503,46.033C654.767,46.91 691.525,37.783 747.116,78.98C814.836,129.165 808.439,200.293 807.939,369.503C807.072,663.243 819.76,715.162 748.184,772.101C694.915,814.476 663.941,804.868 254.501,806.037Z" style="fill:url(#_Radial5);"/>
            <path d="M254.501,806.037C207.731,805.39 125.731,808.919 78.973,742.174C47.011,696.548 47.65,656.035 47.974,531.501C48.799,214.567 43.358,180.308 64.702,134.595C110.723,36.03 203.876,45.656 339.503,46.033C654.767,46.91 691.525,37.783 747.116,78.98C814.836,129.165 808.439,200.293 807.939,369.503C807.072,663.243 819.76,715.162 748.184,772.101C694.915,814.476 663.941,804.868 254.501,806.037ZM254.602,786.704C458.77,786.122 568.591,788.242 634.011,785.209C692.994,782.474 712.194,776.027 736.148,756.971C767.679,731.888 780.163,707.668 785.347,657.611C791.191,601.175 788.175,515.336 788.606,369.446C788.852,286.15 790.69,226.991 783.992,182.484C778.06,143.071 765.126,116.39 735.605,94.513C710.592,75.976 689.637,69.371 639.652,66.692C584.286,63.724 496.568,65.803 339.449,65.366C286.02,65.217 239.283,63.537 199.534,67.876C146.245,73.693 106.525,90.719 82.22,142.774C74.563,159.174 70.994,173.983 69.127,203.978C66.016,253.969 67.801,342.057 67.308,531.551C67.001,649.345 64.575,687.925 94.808,731.081C137.147,791.52 212.166,786.133 254.602,786.704Z" style="fill:rgb(23,38,54);"/>
            <g style="filter:url(#_Effect6);">
                <path d="M254.501,806.037C207.731,805.39 125.731,808.919 78.973,742.174C47.011,696.548 47.65,656.035 47.974,531.501C48.799,214.567 43.358,180.308 64.702,134.595C110.723,36.03 203.876,45.656 339.503,46.033C654.767,46.91 691.525,37.783 747.116,78.98C814.836,129.165 808.439,200.293 807.939,369.503C807.072,663.243 819.76,715.162 748.184,772.101C694.915,814.476 663.941,804.868 254.501,806.037ZM254.523,802.037C459.128,801.453 569.173,803.565 634.722,800.526C698.938,797.548 719.614,789.717 745.694,768.971C780.601,741.202 794.86,714.607 800.599,659.19C806.474,602.454 803.506,516.158 803.939,369.491C804.188,285.157 805.936,225.264 799.155,180.202C792.532,136.195 777.696,106.621 744.734,82.193C717.514,62.022 694.868,54.296 640.473,51.38C584.964,48.405 497.017,50.471 339.492,50.033C285.411,49.882 238.105,48.241 197.87,52.633C138.829,59.078 95.255,78.614 68.327,136.287C59.971,154.182 55.861,170.295 53.823,203.026C50.703,253.156 52.469,341.489 51.974,531.511C51.654,654.65 50.645,694.764 82.249,739.879C128.092,805.319 208.65,801.405 254.523,802.037Z"/>
                <path d="M254.418,812.037C206.292,811.371 122.173,814.297 74.059,745.616C41.559,699.224 41.645,658.113 41.974,531.485C42.47,341.119 40.717,252.625 43.843,202.404C45.991,167.89 50.455,150.927 59.266,132.056C83.208,80.778 119.385,57.61 167.242,47.344C213.58,37.403 271.199,39.843 339.519,40.033C497.311,40.472 585.405,38.414 641.008,41.395C698.28,44.465 722.029,52.92 750.688,74.159C785.895,100.25 801.969,131.71 809.043,178.714C815.879,224.137 814.19,284.509 813.939,369.521C813.505,516.695 816.441,603.288 810.546,660.22C804.445,719.133 789.029,747.276 751.919,776.797C724.453,798.646 702.816,807.379 635.185,810.515C569.558,813.558 459.379,811.452 254.518,812.037L254.418,812.037ZM254.501,806.037C663.941,804.868 694.915,814.476 748.184,772.101C819.76,715.162 807.072,663.243 807.939,369.503C808.439,200.293 814.836,129.165 747.116,78.98C691.525,37.783 654.767,46.91 339.503,46.033C203.876,45.656 110.723,36.03 64.702,134.595C43.358,180.308 48.799,214.567 47.974,531.501C47.65,656.035 47.011,696.548 78.973,742.174C125.731,808.919 207.731,805.39 254.501,806.037Z" style="fill:url(#_Linear7);"/>
            </g>
        </g>
        <g transform="matrix(1,0,0,1,0,2)">
            <g style="filter:url(#_Effect8);">
                <g opacity="0.5">
                    <path d="M412.992,470.438C413.018,481.911 386.573,619.445 318.301,650.055C205.064,700.825 103.851,552.542 197.579,465.582C226.102,439.118 276.652,421.111 398.566,458.281C412.035,462.388 412.417,468.056 412.992,470.438Z" style="stroke:black;stroke-width:8px;"/>
                    <path d="M427.496,437.934C409.319,433.99 348.336,367.869 326.944,320.311C284.714,226.43 378.207,141.012 461.556,169.335C495.387,180.832 580.741,238.532 514.152,344.272C498.372,369.33 444.898,434.932 427.496,437.934Z" style="stroke:black;stroke-width:8px;"/>
                    <path d="M443.13,469.404C447.15,461.496 449.963,461.341 458.569,458.701C587.561,419.139 638.894,442.234 667.027,474.899C748.978,570.054 639.304,704.98 529.747,646.042C476.726,617.518 442.517,492.421 443.13,469.404Z" style="stroke:black;stroke-width:8px;"/>
                </g>
            </g>
        </g>
        <g>
            <path d="M412.992,470.438C413.018,481.911 386.573,619.445 318.301,650.055C205.064,700.825 103.851,552.542 197.579,465.582C226.102,439.118 276.652,421.111 398.566,458.281C412.035,462.388 412.417,468.056 412.992,470.438Z" style="fill:url(#_Linear9);"/>
            <path d="M412.992,470.438C413.018,481.911 386.573,619.445 318.301,650.055C205.064,700.825 103.851,552.542 197.579,465.582C226.102,439.118 276.652,421.111 398.566,458.281C412.035,462.388 412.417,468.056 412.992,470.438Z" style="fill:url(#_Linear10);"/>
            <path d="M427.496,437.934C409.319,433.99 348.336,367.869 326.944,320.311C284.714,226.43 378.207,141.012 461.556,169.335C495.387,180.832 580.741,238.532 514.152,344.272C498.372,369.33 444.898,434.932 427.496,437.934Z" style="fill:url(#_Linear11);"/>
            <path d="M427.496,437.934C409.319,433.99 348.336,367.869 326.944,320.311C284.714,226.43 378.207,141.012 461.556,169.335C495.387,180.832 580.741,238.532 514.152,344.272C498.372,369.33 444.898,434.932 427.496,437.934Z" style="fill:url(#_Linear12);"/>
            <path d="M443.13,469.404C447.15,461.496 449.963,461.341 458.569,458.701C587.561,419.139 638.894,442.234 667.027,474.899C748.978,570.054 639.304,704.98 529.747,646.042C476.726,617.518 442.517,492.421 443.13,469.404Z" style="fill:url(#_Linear13);"/>
            <path d="M443.13,469.404C447.15,461.496 449.963,461.341 458.569,458.701C587.561,419.139 638.894,442.234 667.027,474.899C748.978,570.054 639.304,704.98 529.747,646.042C476.726,617.518 442.517,492.421 443.13,469.404Z" style="fill:url(#_Linear14);"/>
        </g>
    </g>
    <g>
        <g>
            <g transform="matrix(1.423385,0,0,1.83579,-223.984837,-278.479206)">
                <g style="filter:url(#_Effect15);">
                    <ellipse cx="517.419" cy="333.283" rx="61.594" ry="40.378" style="fill:url(#_Linear16);"/>
                </g>
            </g>
            <g transform="matrix(1.333333,0,0,1.666722,-306.563568,42.601456)">
                <g style="filter:url(#_Effect17);">
                    <path d="M501.931,294.763C531.838,294.189 582.62,295.481 592.325,311.984C603.216,330.506 530.422,381.268 496.427,381.268C462.432,381.268 420.933,365.041 423.569,342.294C426.477,317.201 458.629,295.593 501.931,294.763Z" style="fill:url(#_Linear18);"/>
                </g>
            </g>
            <g transform="matrix(1.431111,0,0,1.666722,-82.734406,45.699052)">
                <g style="filter:url(#_Effect19);">
                    <path d="M517.419,292.905C556.777,292.971 586.473,314.775 589.534,339.031C592.329,361.187 561.934,379.41 527.94,379.41C493.945,379.41 424.677,331.364 436.964,311.734C446.452,296.577 492.612,292.863 517.419,292.905Z" style="fill:url(#_Linear20);"/>
                </g>
            </g>
        </g>
        <g>
            <g transform="matrix(-1.242081,0,-0,-1.552652,1309.732734,1193.14486)">
                <g style="filter:url(#_Effect21);">
                    <path d="M517.419,292.905C551.414,292.905 582.539,315.229 582.539,337.514C582.539,359.8 554.058,322.178 520.064,322.178C486.069,322.178 451.417,354.024 451.417,331.739C451.417,309.454 483.424,292.905 517.419,292.905Z" style="fill:url(#_Linear22);"/>
                </g>
            </g>
            <g transform="matrix(1.242081,0,0,-1.552652,-280.599364,1193.14486)">
                <g style="filter:url(#_Effect23);">
                    <path d="M517.419,292.905C551.414,292.905 582.539,315.229 582.539,337.514C582.539,359.8 554.058,322.178 520.064,322.178C486.069,322.178 451.417,354.024 451.417,331.739C451.417,309.454 483.424,292.905 517.419,292.905Z" style="fill:url(#_Linear24);"/>
                </g>
            </g>
            <g transform="matrix(1.242081,0,0,-1.552652,-130.128432,948.480628)">
                <g style="filter:url(#_Effect25);">
                    <path d="M516.706,281.119C537.457,281.584 577.966,336.318 563.356,335.709C545.356,334.958 545.284,321.552 516.706,321.191C498.511,320.961 483.656,343.039 468.344,334.447C462.28,331.045 489.88,280.519 516.706,281.119Z" style="fill:url(#_Linear26);"/>
                </g>
            </g>
        </g>
    </g>
    <defs>
        <linearGradient id="_Linear1" x1="0" y1="0" x2="1" y2="0" gradientUnits="userSpaceOnUse" gradientTransform="matrix(715.551248,-715.551248,715.551248,715.551248,69.628597,784.563499)"><stop offset="0" style="stop-color:rgb(198,211,37);stop-opacity:1"/><stop offset="0.5" style="stop-color:rgb(233,76,63);stop-opacity:1"/><stop offset="1" style="stop-color:rgb(100,134,181);stop-opacity:1"/></linearGradient>
        <linearGradient id="_Linear2" x1="0" y1="0" x2="1" y2="0" gradientUnits="userSpaceOnUse" gradientTransform="matrix(-709.060957,-709.060957,709.060957,-709.060957,780.513197,778.573198)"><stop offset="0" style="stop-color:rgb(232,74,62);stop-opacity:0"/><stop offset="0.77" style="stop-color:rgb(7,175,241);stop-opacity:0.5"/><stop offset="1" style="stop-color:rgb(67,198,179);stop-opacity:1"/></linearGradient>
        <filter id="_Effect3" filterUnits="userSpaceOnUse" x="-1.998" y="-3.938" width="860.128" height="860.108">
            <feGaussianBlur in="SourceGraphic" stdDeviation="2.436"/>
        </filter>
        <linearGradient id="_Linear4" x1="0" y1="0" x2="1" y2="0" gradientUnits="userSpaceOnUse" gradientTransform="matrix(0,-200.876389,200.876389,0,428.066047,214.555415)"><stop offset="0" style="stop-color:white;stop-opacity:0"/><stop offset="1" style="stop-color:white;stop-opacity:1"/></linearGradient>
        <radialGradient id="_Radial5" cx="0" cy="0" r="1" gradientUnits="userSpaceOnUse" gradientTransform="matrix(380.208117,0,-0,380.208117,428.107782,425.913494)"><stop offset="0" style="stop-color:rgb(37,61,86);stop-opacity:1"/><stop offset="1" style="stop-color:rgb(32,51,72);stop-opacity:1"/></radialGradient>
        <filter id="_Effect6" filterUnits="userSpaceOnUse" x="36.085" y="33.799" width="784.046" height="784.228">
            <feGaussianBlur in="SourceGraphic" stdDeviation="0.969"/>
        </filter>
        <linearGradient id="_Linear7" x1="0" y1="0" x2="1" y2="0" gradientUnits="userSpaceOnUse" gradientTransform="matrix(0.50163,-245.332522,245.332522,0.50163,428,819.512192)"><stop offset="0" style="stop-color:white;stop-opacity:0.6"/><stop offset="1" style="stop-color:white;stop-opacity:0"/></linearGradient>
        <filter id="_Effect8" filterUnits="userSpaceOnUse" x="147.874" y="151.021" width="560.503" height="522.221">
            <feGaussianBlur in="SourceGraphic" stdDeviation="1.467"/>
        </filter>
        <linearGradient id="_Linear9" x1="0" y1="0" x2="1" y2="0" gradientUnits="userSpaceOnUse" gradientTransform="matrix(122.983341,181.333087,-181.333087,122.983341,212.675442,459.444629)"><stop offset="0" style="stop-color:rgb(170,222,89);stop-opacity:1"/><stop offset="0.5" style="stop-color:rgb(216,226,58);stop-opacity:1"/><stop offset="1" style="stop-color:rgb(213,180,45);stop-opacity:1"/></linearGradient>
        <linearGradient id="_Linear10" x1="0" y1="0" x2="1" y2="0" gradientUnits="userSpaceOnUse" gradientTransform="matrix(-142.666424,87.999882,-87.999882,-142.666424,412.992012,460.77796)"><stop offset="0" style="stop-color:rgb(245,239,222);stop-opacity:1"/><stop offset="0.5" style="stop-color:rgb(216,226,58);stop-opacity:1"/><stop offset="1" style="stop-color:rgb(216,226,58);stop-opacity:0"/></linearGradient>
        <linearGradient id="_Linear11" x1="0" y1="0" x2="1" y2="0" gradientUnits="userSpaceOnUse" gradientTransform="matrix(222.410385,0,0,222.410385,316.456447,300.878534)"><stop offset="0" style="stop-color:rgb(80,198,184);stop-opacity:1"/><stop offset="0.5" style="stop-color:rgb(40,202,252);stop-opacity:1"/><stop offset="1" style="stop-color:rgb(85,135,185);stop-opacity:1"/></linearGradient>
        <linearGradient id="_Linear12" x1="0" y1="0" x2="1" y2="0" gradientUnits="userSpaceOnUse" gradientTransform="matrix(0,-158.111857,158.111857,0,428.661639,437.934349)"><stop offset="0" style="stop-color:rgb(246,235,218);stop-opacity:1"/><stop offset="1" style="stop-color:rgb(85,135,185);stop-opacity:0"/></linearGradient>
        <linearGradient id="_Linear13" x1="0" y1="0" x2="1" y2="0" gradientUnits="userSpaceOnUse" gradientTransform="matrix(120.164474,-188.431106,188.431106,120.164474,526.343933,647.965087)"><stop offset="0" style="stop-color:rgb(223,105,57);stop-opacity:1"/><stop offset="0.68" style="stop-color:rgb(242,75,92);stop-opacity:1"/><stop offset="1" style="stop-color:rgb(210,71,94);stop-opacity:1"/></linearGradient>
        <linearGradient id="_Linear14" x1="0" y1="0" x2="1" y2="0" gradientUnits="userSpaceOnUse" gradientTransform="matrix(148.71997,82.501798,-82.501798,148.71997,443.121887,466.632137)"><stop offset="0" style="stop-color:rgb(248,233,224);stop-opacity:1"/><stop offset="1" style="stop-color:rgb(210,71,94);stop-opacity:0"/></linearGradient>
        <filter id="_Effect15" filterUnits="userSpaceOnUse" x="449.641" y="288.11" width="135.555" height="90.346">
            <feGaussianBlur in="SourceGraphic" stdDeviation="0.893"/>
        </filter>
        <linearGradient id="_Linear16" x1="0" y1="0" x2="1" y2="0.001" gradientUnits="userSpaceOnUse" gradientTransform="matrix(-0.25377,80.756453,-93.064912,-0.220208,517.672676,292.904561)"><stop offset="0" style="stop-color:rgb(27,248,253);stop-opacity:0.87"/><stop offset="1" style="stop-color:rgb(27,248,253);stop-opacity:0"/></linearGradient>
        <filter id="_Effect17" filterUnits="userSpaceOnUse" x="416.848" y="289.378" width="183.178" height="97.171">
            <feGaussianBlur in="SourceGraphic" stdDeviation="0.972"/>
        </filter>
        <linearGradient id="_Linear18" x1="0" y1="0" x2="1" y2="0" gradientUnits="userSpaceOnUse" gradientTransform="matrix(-0.25377,80.756453,-93.064912,-0.220208,517.672676,292.904561)"><stop offset="0" style="stop-color:white;stop-opacity:0.62"/><stop offset="1" style="stop-color:white;stop-opacity:0"/></linearGradient>
        <filter id="_Effect19" filterUnits="userSpaceOnUse" x="429.371" y="287.623" width="166.492" height="97.067">
            <feGaussianBlur in="SourceGraphic" stdDeviation="0.944"/>
        </filter>
        <linearGradient id="_Linear20" x1="0" y1="0" x2="1" y2="0" gradientUnits="userSpaceOnUse" gradientTransform="matrix(31.086403,74.449453,-85.798417,26.407655,486.332502,299.211561)"><stop offset="0" style="stop-color:white;stop-opacity:0.62"/><stop offset="1" style="stop-color:white;stop-opacity:0"/></linearGradient>
        <filter id="_Effect21" filterUnits="userSpaceOnUse" x="441.522" y="284.989" width="150.913" height="67.498">
            <feGaussianBlur in="SourceGraphic" stdDeviation="1.457"/>
        </filter>
        <linearGradient id="_Linear22" x1="0" y1="0" x2="1" y2="0" gradientUnits="userSpaceOnUse" gradientTransform="matrix(-0.25377,23.626151,-27.227047,-0.196825,517.672676,292.904561)"><stop offset="0" style="stop-color:white;stop-opacity:0.42"/><stop offset="1" style="stop-color:white;stop-opacity:0"/></linearGradient>
        <filter id="_Effect23" filterUnits="userSpaceOnUse" x="441.522" y="284.989" width="150.913" height="67.498">
            <feGaussianBlur in="SourceGraphic" stdDeviation="1.457"/>
        </filter>
        <linearGradient id="_Linear24" x1="0" y1="0" x2="1" y2="0" gradientUnits="userSpaceOnUse" gradientTransform="matrix(-0.694564,38.834505,-44.753215,-0.528133,517.672676,292.904561)"><stop offset="0" style="stop-color:white;stop-opacity:0.42"/><stop offset="1" style="stop-color:white;stop-opacity:0"/></linearGradient>
        <filter id="_Effect25" filterUnits="userSpaceOnUse" x="457.602" y="273.198" width="118.757" height="71.151">
            <feGaussianBlur in="SourceGraphic" stdDeviation="1.457"/>
        </filter>
        <linearGradient id="_Linear26" x1="0" y1="0" x2="1" y2="0" gradientUnits="userSpaceOnUse" gradientTransform="matrix(-0,43.529024,-50.163537,-0.017816,517.672676,292.904561)"><stop offset="0" style="stop-color:white;stop-opacity:0.42"/><stop offset="1" style="stop-color:white;stop-opacity:0"/></linearGradient>
    </defs>
</svg>
