<?xml version="1.0" encoding="UTF-8" standalone="no"?>
<!DOCTYPE svg PUBLIC "-//W3C//DTD SVG 1.1//EN" "http://www.w3.org/Graphics/SVG/1.1/DTD/svg11.dtd">
<svg width="100%" height="100%" viewBox="0 0 699 699" version="1.1" xmlns="http://www.w3.org/2000/svg" xmlns:xlink="http://www.w3.org/1999/xlink" xml:space="preserve" xmlns:serif="http://www.serif.com/" style="fill-rule:evenodd;clip-rule:evenodd;stroke-linejoin:round;stroke-miterlimit:2;">
    <g id="Artboard1" transform="matrix(1,0,0,1,91.462167,64.917883)">
        <rect x="-91.462" y="-64.918" width="698.975" height="698.975" style="fill:none;"/>
        <g transform="matrix(1,0,0,1,0.537833,0.082117)">
            <g transform="matrix(1,0,0,1,-92,-65)">
                <path d="M698.975,55.715L698.975,643.259C698.975,674.009 674.009,698.975 643.259,698.975L55.715,698.975C24.965,698.975 0,674.009 0,643.259L0,55.715C0,24.965 24.965,0 55.715,0L643.259,0C674.009,0 698.975,24.965 698.975,55.715Z" style="fill:rgb(255,82,34);"/>
            </g>
            <g transform="matrix(0.855331,0,0,0.855331,43.654404,44.99446)">
                <path d="M28.226,119.329L221.774,7.566C238.973,-2.368 260.197,-2.518 277.534,7.173L278.226,7.566L471.759,119.33C488.987,129.277 499.738,147.618 500,167.51L500,391.77C500,411.691 489.482,430.139 472.38,440.308L471.759,440.671L278.226,552.434C261.027,562.368 239.803,562.518 222.466,552.827L221.774,552.434L28.226,440.67C11.004,430.718 0.26,412.379 0,392.49L0,168.23C-0.002,148.338 10.508,129.859 27.605,119.692L28.226,119.329L221.774,7.566L28.226,119.33L28.226,119.329ZM249.996,93.933L88.902,186.97L88.902,373.026L249.996,466.062L249.996,280.004L411.104,186.969L249.996,93.933Z" style="fill:rgb(17,18,19);"/>
            </g>
        </g>
    </g>
</svg>
