<?xml version="1.0" encoding="UTF-8" standalone="no"?><!DOCTYPE svg PUBLIC "-//W3C//DTD SVG 1.1//EN" "http://www.w3.org/Graphics/SVG/1.1/DTD/svg11.dtd"><svg width="100%" height="100%" viewBox="0 0 5855 5855" version="1.1" xmlns="http://www.w3.org/2000/svg" xmlns:xlink="http://www.w3.org/1999/xlink" xml:space="preserve" xmlns:serif="http://www.serif.com/" style="fill-rule:evenodd;clip-rule:evenodd;stroke-linejoin:round;stroke-miterlimit:2;"><rect id="Artboard1" x="0" y="0" width="5854.167" height="5854.167" style="fill:none;"/><clipPath id="_clip1"><rect x="0" y="0" width="5854.167" height="5854.167"/></clipPath><g clip-path="url(#_clip1)"><g><circle cx="2927.069" cy="1303.841" r="569.878" style="fill:#00d5be;"/><path d="M4023.159,5294.513c168.248,-77.954 326.811,-173.321 473.368,-283.783l0,-1363.874c0,-864.715 -705.56,-1580.12 -1569.457,-1580.12l-6.592,-0c-862.383,3.578 -1562.865,706.246 -1562.865,1569.457l0,661.944c0,130.174 102.951,239.153 233.013,241.132c1.12,0.016 2.24,0.024 3.36,0.024c129.921,0 236.863,-106.835 236.995,-236.755l0,-955.113c0,-52.943 43.566,-96.509 96.509,-96.509c52.943,0 96.509,43.566 96.509,96.509l0,2025.683c151.66,56.21 309.952,98.709 473.368,125.989l0,-818.898c0,-52.943 43.566,-96.509 96.509,-96.509c52.943,0 96.509,43.566 96.509,96.509l-0,843.742c78.642,7.153 158.288,10.808 238.781,10.808c79.062,0 157.308,-3.526 234.587,-10.43l0,-844.12c0,-52.943 43.566,-96.509 96.509,-96.509c52.943,0 96.509,43.566 96.509,96.509l0,819.595c163.396,-27.001 321.687,-69.215 473.368,-125.135l0,-1360.847c0,-52.943 43.566,-96.509 96.509,-96.509c52.943,0 96.509,43.566 96.509,96.509l0,1280.7Z" style="fill:#00d5be;"/></g><clipPath id="_clip2"><circle cx="2929.167" cy="2927.097" r="2927.097"/></clipPath><g clip-path="url(#_clip2)"><path d="M2927.069,-0.028c1615.509,0 2927.097,1311.588 2927.097,2927.097c0,1615.509 -1311.588,2927.097 -2927.097,2927.097c-1615.509,0 -2927.097,-1311.588 -2927.097,-2927.097c-0,-1615.509 1311.588,-2927.097 2927.097,-2927.097Zm0,416.667c-1385.544,0 -2510.431,1124.886 -2510.431,2510.431c-0,1385.544 1124.886,2510.431 2510.431,2510.431c1385.544,0 2510.431,-1124.886 2510.431,-2510.431c0,-1385.544 -1124.886,-2510.431 -2510.431,-2510.431Z" style="fill:#00d5be;"/></g></g></svg>