<svg xmlns:xlink="http://www.w3.org/1999/xlink" xmlns="http://www.w3.org/2000/svg" width="1283" height="132" viewBox="0 0 1283 132" fill="none">
  <path d="M885.642 0.961158C875.385 2.14957 864.326 5.17464 857.061 8.84793C843.599 15.7083 836.333 25.1617 834.944 37.6941C833.983 46.4451 836.173 53.4676 841.622 59.3016C848.994 67.0804 859.625 71.4019 885.375 77.0739C912.192 82.9619 918.283 84.7986 921.541 87.9317C923.625 89.9304 923.678 90.0925 923.464 92.7394C922.77 99.6538 915.718 103.219 902.737 103.165C888.847 103.165 881.208 99.5458 878.911 91.8751C878.483 90.4706 878.163 88.6339 878.163 87.7696V86.2571H828.32L828.64 90.2005C830.19 108.891 845.896 122.504 872.446 128.338C895.632 133.416 926.082 131.417 945.635 123.53C953.541 120.289 957.975 117.426 963.157 112.24C970.583 104.732 973.681 96.7908 973.094 86.5272C972.346 72.9684 964.386 64.0013 947.291 57.465C940.72 54.9261 931.959 52.7113 916.894 49.7943C888.42 44.2844 881.635 41.5834 881.795 36.0195C881.902 31.0497 888.099 28.2407 898.997 28.2407C905.354 28.2407 909.201 29.051 913.421 31.1578C917.855 33.4266 919.832 36.0735 919.832 39.8548V41.4214H966.309V39.0985C966.309 37.8561 965.935 35.3712 965.508 33.5886C960.486 11.981 936.927 0.150873 899.531 0.420968C894.082 0.474987 887.832 0.691063 885.642 0.961158ZM1188.01 0.961158C1173.16 2.63575 1158.36 7.82157 1147.68 15.0061C1142.17 18.7334 1134.32 26.4041 1130.9 31.4279C1118.88 48.984 1116.96 72.2662 1126.04 91.4969C1128.87 97.6011 1131.92 101.923 1137.1 107.379C1151.95 122.936 1174.28 131.093 1202.11 131.093C1228.56 131.093 1251.1 122.99 1265.74 108.135C1273.49 100.302 1278.56 91.4969 1281.39 80.9632C1282.62 76.2096 1282.78 74.8051 1282.78 65.7299C1282.78 56.6007 1282.62 55.3042 1281.34 50.3345C1274.23 23.5411 1250.67 5.66081 1216.7 1.17723C1209.91 0.31293 1194.9 0.204892 1188.01 0.961158ZM1209.65 32.5082C1224.76 35.7494 1233.42 47.7956 1233.42 65.7299C1233.42 86.7433 1221.35 99.7078 1201.74 99.7618C1188.81 99.7618 1178.07 93.4416 1173.37 83.016C1171.08 77.9382 1170.22 73.1305 1170.22 65.7299C1170.22 55.6284 1172.14 48.876 1176.85 42.6638C1180.53 37.8561 1187.74 33.6426 1194.69 32.2381C1198.21 31.5359 1205.69 31.6439 1209.65 32.5082ZM0.438477 65.7299V128.392H135.596V95.9805H50.121V80.8552L87.9438 80.7472L125.713 80.5851V50.8747L87.9438 50.7126L50.121 50.6046V35.4793H133.459L133.353 19.3816L133.192 3.33799L66.8421 3.17594L0.438477 3.0679V65.7299ZM152.157 3.50005C152.157 3.71613 163.91 16.8968 178.28 32.7783L204.404 61.6785L202.748 63.5691C201.84 64.5955 188.965 79.3967 174.114 96.4127C159.262 113.483 147.029 127.636 146.922 127.906C146.815 128.176 158.14 128.392 174.968 128.392H203.229L217.332 109.755C231.489 91.1188 231.489 91.1188 232.397 92.3072C232.931 93.0095 239.128 101.382 246.18 110.944L259.001 128.392H288.704C306.814 128.392 318.3 128.176 318.193 127.906C318.139 127.636 315.842 124.881 313.171 121.802C279.836 83.5021 261.672 62.2727 261.779 61.8946C261.886 61.6245 273.265 48.4978 287.048 32.7243C300.884 16.9508 312.263 3.82416 312.316 3.55407C312.423 3.22995 301.952 3.12192 285.125 3.17594L257.666 3.33799L246.126 19.8138C239.769 28.8349 234.32 36.2896 234.106 36.3976C233.839 36.4516 228.23 28.997 221.659 19.8138L209.746 3.0679H180.952C165.085 3.0679 152.157 3.22995 152.157 3.50005ZM333.792 65.7299V128.392L358.526 128.284L383.207 128.122L383.368 103.381L383.474 78.6945H429.417L429.524 103.381L429.685 128.122L454.419 128.284L479.1 128.392V3.0679L454.419 3.17594L429.685 3.33799L429.524 24.7835L429.417 46.2831H383.474L383.368 24.7835L383.207 3.33799L358.526 3.17594L333.792 3.0679V65.7299ZM520.983 64.9736C504.849 99.0056 491.601 127.203 491.494 127.636C491.334 128.284 495.02 128.392 516.121 128.392H540.963L542.939 123.368C544.008 120.667 545.61 116.616 546.519 114.455L548.121 110.566H599.139L600.368 113.915C601.062 115.805 602.558 119.803 603.68 122.828L605.817 128.392H631.406C645.456 128.392 656.995 128.23 656.995 128.068C656.995 127.852 643.854 99.6538 627.827 65.4058L598.605 3.0679H550.312L520.983 64.9736ZM581.831 64.2174C585.57 74.2109 588.615 82.6919 588.615 83.016C588.615 83.3941 583.754 83.5562 573.871 83.5562C560.034 83.5562 559.126 83.5021 559.447 82.5838C561.797 76.1015 574.512 45.3107 574.779 45.6348C574.939 45.8509 578.144 54.2239 581.831 64.2174ZM660.735 45.0406C660.735 83.9343 660.842 87.4455 661.75 91.9291C663.673 101.328 667.252 107.973 673.823 114.239C683.386 123.476 697.329 128.554 718.698 130.607C726.925 131.417 749.362 130.931 756.734 129.796C785.262 125.421 800.434 114.131 805.669 93.3876C806.844 88.742 806.844 88.3098 806.844 46.013V3.33799L782.163 3.17594L757.482 3.0679L757.322 43.15C757.162 82.5298 757.108 83.3401 755.986 86.6893C754.865 89.9844 752.941 93.1175 750.751 95.0622C747.385 98.0332 741.349 99.7618 734.19 99.7618C721.85 99.7618 714.638 95.5484 711.646 86.6352C710.791 84.0963 710.685 79.9909 710.417 43.5821L710.15 3.33799L685.469 3.17594L660.735 3.0679V45.0406ZM981 3.77014C980.84 4.14828 980.786 11.3328 980.84 19.8138L981 35.2092L1003.28 35.3712L1025.61 35.4793L1025.71 81.8276L1025.87 128.122L1050.61 128.284L1075.29 128.392V35.4793L1097.89 35.3712L1120.43 35.2092V3.33799L1050.82 3.17594C995.05 3.0679 981.16 3.17594 981 3.77014Z" fill="#DF1E40"></path>
</svg>