<svg xmlns:xlink="http://www.w3.org/1999/xlink" xmlns="http://www.w3.org/2000/svg" viewBox="0 0 141 56"   title="Logo" width="1"  height="1" ><path fill-rule="evenodd" d="m131.846 14.342 6.637 1.051a2.416 2.416 0 0 1-.375 4.8q-.189 0-.381-.03l-7.03-1.114c-2.222-.352-3.814.52-3.814 3.074v6.49a2.415 2.415 0 0 1-4.829 0V18.26c0-2.297-1.027-3.33-3.185-4.261l-.643-.264-5.28-2.171a2.034 2.034 0 0 1 1.547-3.761l4.821 1.982c.608.25.985.239 1.554-.035 0 0 4.145-1.995 4.391-2.13l.076-.04c.219-.117.43-.23.631-.614l3.064-5.874a2.032 2.032 0 1 1 3.605 1.88l-3.721 7.135-.209.401c-1.031 1.976.75 3.454 3.141 3.833Zm-6.515-10.43c0 1.743-1.381 3.143-3.097 3.143-1.709 0-3.098-1.4-3.098-3.144 0-1.734 1.389-3.144 3.098-3.144 1.716 0 3.097 1.41 3.097 3.144Zm-87.712 24.93c0-6.62-3.987-9.826-9.766-9.802-6.274.024-9.777 3.182-9.777 9.802 0 6.856 3.614 9.8 9.777 9.8 5.785 0 9.766-2.944 9.766-9.8m-13.501 0c0-3.518 1.21-5.174 3.735-5.174 2.517 0 3.722 1.656 3.722 5.174 0 3.592-1.205 5.178-3.722 5.178-2.525 0-3.735-1.622-3.735-5.178m-13.32-8.007c1.18-1.292 1.751-1.79 2.758-1.79 1.631 0 3.11 1.855 3.11 2.979 0 .872-.363 1.368-1.159 2.182l-2.832 3.124 4.165 6.742c.342.548.61 1.129.61 1.786 0 1.578-1.5 2.785-3.08 2.785-.946 0-1.82-.264-2.495-1.34l-3.693-5.951-2.115 1.866-.023 2.167c0 2.024-1.161 3.258-3.026 3.258S0 37.409 0 35.385V22.3c0-2.02 1.154-3.256 3.018-3.256 1.865 0 3.026 1.236 3.026 3.256v3.732l4.754-5.198Zm87.7 21.503c0-.709.444-1.181 1.063-1.181.62 0 1.063.472 1.063 1.18v9.093c0 .708-.443 1.18-1.063 1.18s-1.063-.472-1.063-1.18zm-41.355.738c0-.739.472-1.151 1.107-1.151s1.107.412 1.107 1.15v7.41h2.627c.753 0 1.078.56 1.063 1.063-.03.487-.413.974-1.063.974h-3.69c-.722 0-1.15-.472-1.15-1.21v-8.236Zm11.712 4.811c-.119-.93-.709-1.623-1.698-1.623-.944 0-1.579.723-1.682 1.623zm-3.336 1.417c.147 1.048 1.018 1.535 2.007 1.535.636 0 1.157-.29 1.592-.532.312-.174.58-.323.814-.323.457 0 .87.456.87.914 0 .915-1.888 1.801-3.468 1.801-2.39 0-3.985-1.741-3.985-4.088 0-2.155 1.565-4.118 3.808-4.118 2.303 0 3.823 2.096 3.823 3.867 0 .635-.28.944-.93.944zm6.743-2.775h.473v4.9c0 .709.442 1.181 1.062 1.181s1.063-.472 1.063-1.18v-4.9h.605c.546 0 1.019-.266 1.019-.93 0-.68-.473-.93-1.019-.93h-.605V43.4c0-.708-.443-1.18-1.063-1.18s-1.062.472-1.062 1.18v1.27h-.472a.91.91 0 0 0-.93.93c0 .575.354.93.93.93Zm12.099.443c-.172 0-.42-.115-.704-.246-.373-.173-.806-.374-1.2-.374-.384 0-.724.177-.724.59 0 .386.561.599 1.245.858 1.071.407 2.445.928 2.445 2.405 0 1.416-1.195 2.494-3.025 2.494-1.196 0-2.967-.68-2.967-1.638 0-.325.324-.945.915-.945.393 0 .683.164.987.336.334.189.686.387 1.212.387.65 0 .841-.206.841-.605 0-.378-.554-.586-1.232-.842-1.073-.405-2.458-.928-2.458-2.42 0-1.476 1.196-2.48 2.879-2.48 1.047 0 2.656.488 2.656 1.536 0 .487-.369.944-.87.944m10.99 1.639c0 .989-.546 2.14-1.653 2.14-1.166 0-1.668-1.181-1.668-2.214 0-1.034.532-2.096 1.668-2.096 1.107 0 1.653 1.166 1.653 2.17m-4.383-4.03c-.62 0-1.063.472-1.063 1.181v8.797c0 .708.442 1.18 1.063 1.18.62 0 1.062-.472 1.062-1.18V51.96a3.03 3.03 0 0 0 1.949.738c2.14 0 3.498-1.993 3.498-4 0-2.066-1.137-4.206-3.425-4.206-.797 0-1.623.324-2.022.974-.133-.561-.472-.886-1.063-.886Zm16.196 4.03c0 1.018-.531 2.14-1.638 2.14-1.151 0-1.682-1.122-1.682-2.14s.516-2.17 1.682-2.17c1.122 0 1.638 1.151 1.638 2.17m1.107 4c1.019 0 1.019-.842 1.019-1.388v-5.255c0-.546 0-1.387-1.019-1.387a1.01 1.01 0 0 0-1.018.886c-.472-.664-1.24-.974-2.022-.974-1.949 0-3.513 1.785-3.513 4.118 0 2.39 1.52 4.088 3.513 4.088.812 0 1.476-.34 2.022-.989.147.561.399.9 1.018.9Zm2.113-6.569a1.5 1.5 0 0 1-.104-.546c0-.531.561-.915 1.004-.915.517 0 .886.28 1.063.753l1.461 4 1.565-4c.177-.473.546-.753 1.063-.753.442 0 1.003.384 1.003.915 0 .221-.029.384-.104.546l-3.557 8.856c-.176.443-.501.842-1.003.842-.723 0-1.107-.458-1.107-.916 0-.206.059-.428.133-.62l.929-2.302zm-32.063.1c.232-.036.63-.262.752-.623l.882-2.372.021-.072c.053-.18.106-.36.078-.54-.082-.523-.63-.885-1.153-.803-.233.036-.63.262-.766.626l-.869 2.369c-.057.203-.115.405-.084.61.082.522.615.886 1.14.805ZM53.265 21.567c.498-1.865 1.29-2.522 3.206-2.522h1.273c2.077 0 3.368 1.341 3.368 3.282v13.612c0 1.808-1.012 2.704-2.92 2.704-1.626 0-2.702-.896-2.702-2.704V27.17h-.056l-2.733 9.79c-.343 1.288-.947 1.682-2.396 1.682-1.445 0-2.042-.394-2.388-1.682l-2.725-9.79h-.057v8.768c0 1.808-1.078 2.704-2.704 2.704-1.976 0-2.925-.896-2.925-2.704V22.327c0-1.94 1.297-3.282 3.368-3.282h1.278c1.918 0 2.705.657 3.206 2.522l2.929 8.947h.047zM66.91 19.04c-2.338 0-3.226 1.421-3.226 3.943v12.504c0 2.027 1.052 3.156 2.94 3.156 1.896 0 2.945-1.129 2.945-3.156v-3.049h3.021c4.622 0 8.25-.88 8.25-6.51 0-6.105-3.84-6.889-8.469-6.889h-5.46Zm8.042 6.909c0 1.697-1.046 1.92-2.043 1.92h-3.34v-3.913h3.048c1.473 0 2.335.164 2.335 1.992Zm10.634 9.803-.438 1.393c-.324 1.077-1.544 1.497-2.52 1.497-1.98 0-2.85-1.022-2.85-2.44 0-.841.482-2.168.929-3.397l.045-.125 4.154-11.194c.598-1.574 1.408-2.44 2.99-2.44h1.953c1.568 0 2.384.866 2.981 2.44l4.157 11.194.035.1c.45 1.235.937 2.575.937 3.422 0 1.418-.814 2.44-2.85 2.44-.971 0-2.195-.42-2.52-1.497l-.432-1.393zm3.31-10.693h-.058l-2.113 6.912h4.294l-2.124-6.912Zm25.613-6.02c-2.233 0-2.944 1.158-2.944 2.919v7.913h-.05l-5.309-9.094c-.762-1.286-1.637-1.738-3.287-1.738-2.562 0-3.461 1.084-3.461 3.13v13.423c0 2.028 1.046 3.05 2.937 3.05 1.898 0 2.944-1.022 2.944-3.05v-7.461h.053l5.016 8.253c1.157 1.92 2.025 2.259 3.629 2.259 2.391 0 3.409-.71 3.409-2.786v-13.9c0-1.76-.769-2.918-2.937-2.918m9.086 16.101c0-.18.101-.294.29-.294h.663c.58 0 .938.26.938.852 0 .414-.312.652-.696.712l.64.685a.25.25 0 0 1 .075.167c0 .147-.116.29-.283.29a.29.29 0 0 1-.217-.098l-.838-1.013h-.007v.817c0 .189-.12.294-.283.294-.161 0-.282-.105-.282-.294zm.565.893h.388c.208 0 .351-.124.351-.335 0-.215-.143-.332-.351-.332h-.388zm.308 2.61a2.417 2.417 0 0 1-2.414-2.414 2.417 2.417 0 0 1 2.414-2.415 2.42 2.42 0 0 1 2.415 2.415 2.417 2.417 0 0 1-2.415 2.414m0-4.476a2.063 2.063 0 0 0-2.061 2.062c0 1.136.924 2.062 2.061 2.062a2.064 2.064 0 0 0 2.062-2.062 2.064 2.064 0 0 0-2.062-2.062" fill="#B5111E"></path></svg>