<?xml version="1.0" encoding="utf-8"?>
<!-- Generator: Adobe Illustrator 25.2.0, SVG Export Plug-In . SVG Version: 6.00 Build 0)  -->
<svg version="1.1" id="Layer_1" xmlns="http://www.w3.org/2000/svg" xmlns:xlink="http://www.w3.org/1999/xlink" x="0px" y="0px"
	 viewBox="0 0 234.1 41.1" style="enable-background:new 0 0 234.1 41.1;" xml:space="preserve">
<style type="text/css">
	.st0{fill:#B60D18;}
</style>
<g>
	<g>
		<path class="st0" d="M31.7,29c0.8,0,1.5,0.7,1.5,1.5c0,0.8-0.7,1.5-1.5,1.5l-30.6,0V41h33c5.6,0,10.1-4.5,10.1-10.1
			s-4.5-10.1-10.1-10.1l-21.6,0c-0.8,0-1.5-0.7-1.5-1.5s0.7-1.5,1.5-1.5l27.9,0v-9H10.2c-5.6,0-10.1,4.5-10.1,10.1S4.6,29,10.2,29
			L31.7,29z"/>
	</g>
	<g>
		<rect x="113.4" y="0.1" class="st0" width="9.5" height="40.9"/>
		<path class="st0" d="M118.2,20.5"/>
	</g>
	<g>
		<path class="st0" d="M60,29c0,1.6,1,3,2.9,3h4.9v9h-7.3c-7.2,0-10.1-3.2-10.1-10.1v-13H43V8.8h7.4V0.1H60v8.7h7.8v9.1H60L60,29z"
			/>
	</g>
	<g>
		<path class="st0" d="M141.7,29c0,1.6,1,3,2.9,3h4.9v9h-7.3c-7.2,0-10.1-3.2-10.1-10.1v-13h-7.4V8.8h7.4V0.1h9.5v8.7h7.8v9.1h-7.8
			L141.7,29z"/>
	</g>
	<path class="st0" d="M224.2,41V19.5c0-0.9-0.8-1.7-1.8-1.7h-15.5c-1,0-1.8,0.8-1.8,1.7V41h-9.8V16.5c0-4.3,3.7-7.7,8.3-7.7h22.2
		c4.6,0,8.3,3.4,8.3,7.7V41L224.2,41z"/>
	<path class="st0" d="M100.2,41h-21c-4.6,0-8.3-3.5-8.3-7.7V16.5c0-4.3,3.7-7.7,8.3-7.7h22.2c4.6,0,8.3,3.4,8.3,7.7V29h-29v1.2
		c0,0.9,0.8,1.7,1.8,1.7h17.7L100.2,41L100.2,41z M99.8,20.7v-1.2c0-0.9-0.8-1.7-1.8-1.7H82.5c-1,0-1.8,0.8-1.8,1.7v1.2H99.8z"/>
	<path class="st0" d="M190.9,33.3c0,4.2-3.7,7.7-8.3,7.7h-22.2c-4.6,0-8.3-3.5-8.3-7.7V16.5c0-4.3,3.7-7.7,8.3-7.7h22.2
		c4.6,0,8.3,3.5,8.3,7.7V33.3z M161.9,30.3c0,0.9,0.8,1.7,1.8,1.7h15.5c1,0,1.8-0.8,1.8-1.7V19.5c0-0.9-0.8-1.7-1.8-1.7h-15.5
		c-1,0-1.8,0.8-1.8,1.7V30.3z"/>
</g>
<g>
	<path class="st0" d="M47.4-220.6v-12.3c1.8,0.1,9.9,0.3,11.7,0.3c11.3,0,16.4-0.2,16.4-9.9v-1c0-8.2-5.5-11.7-16.4-11.7
		c-2.3,0-9.8,0.2-11.7,0.4v-13.2c5-0.2,3.7-0.3,11.7-0.3c16.9,0,31.5,6,31.5,24.7v1c0,11.6-5.8,16-14.8,19.5l17.2,29.1
		c0.2,0.3,0.2,0.7,0.2,0.9c0,0.8-0.4,1.3-1.3,1.3H78.6c-1.2,0-1.6-1.1-2.2-2.2l-15.8-26.4h-1.5C56.3-220.2,49.9-220.5,47.4-220.6z"
		/>
	<path class="st0" d="M114-191.6h-10.8c-1.2,0-2.2-1-2.2-2.2v-70.8c0-1.2,1-2.1,2.2-2.1H114c1.2,0,2.2,0.9,2.2,2.1v70.8
		C116.2-192.6,115.2-191.6,114-191.6z"/>
	<path class="st0" d="M114-105.2h-10.8c-1.2,0-2.2-1-2.2-2.2v-44.1c0-1.2,1-2.1,2.2-2.1H114c1.2,0,2.2,0.9,2.2,2.1v44.1
		C116.2-106.2,115.2-105.2,114-105.2z"/>
	<path class="st0" d="M177.5-192.3c-5.5,1.1-12.6,1.9-23.9,1.9c-11.8,0-29.3-4.9-29.3-30.8v-13.2c0-25.9,16.6-33.7,29.7-33.7
		c10.5,0,19.9,1.3,23.5,2c1.4,0.3,2.1,0.9,2.1,2.3v7.3c0,1.5-0.4,2.3-2.2,2.3c-0.1,0-0.2,0-0.3,0c-5-0.4-12.6-0.9-23.1-0.9
		c-7.3,0-14.3,5.1-14.3,20.7v13.2c0,15.5,7.6,17.7,14,17.7c4,0,7.4-0.1,10.8-0.3v-21.1c0-1.2,0.9-2.2,2.1-2.2h10.8
		c1.2,0,2.2,1,2.2,2.2v30C179.6-193.5,178.9-192.6,177.5-192.3z"/>
	<path class="st0" d="M114-167.6H87.2v60.2c0,1.2-1,2.2-2.2,2.2H74.1c-1.2,0-2.2-1-2.2-2.2v-60.2H49.6c-1.2,0-2.2-0.8-2.2-2v-8.6
		c0-1.2,1-2.1,2.2-2.1H114c1.2,0,2.2,0.9,2.2,2.1v8.6C116.2-168.4,115.2-167.6,114-167.6z"/>
	<path class="st0" d="M177.5-105.9c-5.5,1.1-12.6,1.9-23.9,1.9c-11.8,0-29.3-4.9-29.3-30.8V-148c0-25.9,16.6-33.7,29.7-33.7
		c10.5,0,19.9,1.3,23.5,2c1.4,0.3,2.1,0.9,2.1,2.3v7.3c0,1.5-0.4,2.3-2.2,2.3c-0.1,0-0.2,0-0.3,0c-5-0.4-12.6-0.9-23.1-0.9
		c-7.3,0-14.3,5.1-14.3,20.7v13.2c0,15.5,7.6,17.7,14,17.7c4,0,7.4-0.1,10.8-0.3v-21.1c0-1.2,0.9-2.2,2.1-2.2h10.8
		c1.2,0,2.2,1,2.2,2.2v30C179.6-107.1,178.9-106.3,177.5-105.9z"/>
</g>
</svg>
