<?xml version="1.0" encoding="UTF-8" standalone="no"?><!DOCTYPE svg PUBLIC "-//W3C//DTD SVG 1.1//EN" "http://www.w3.org/Graphics/SVG/1.1/DTD/svg11.dtd"><svg width="100%" height="100%" viewBox="0 0 2623 2131" version="1.1" xmlns="http://www.w3.org/2000/svg" xmlns:xlink="http://www.w3.org/1999/xlink" xml:space="preserve" xmlns:serif="http://www.serif.com/" style="fill-rule:evenodd;clip-rule:evenodd;stroke-linejoin:round;stroke-miterlimit:2;"><path d="M1031.025,1182.438c9.555,-170.461 93.028,-320.64 218.959,-427.1c123.497,-104.566 289.721,-168.478 471.09,-168.478c181.188,0 347.413,63.912 471,168.478c125.84,106.459 209.313,256.638 218.959,426.919c9.555,175.149 -60.847,337.858 -184.343,458.469c-125.93,122.685 -305.046,199.668 -505.615,199.668c-200.569,0 -380.045,-76.982 -505.885,-199.668c-123.587,-120.612 -193.808,-283.321 -184.163,-458.289Z" style="fill:#fff;fill-rule:nonzero;"/><path d="M1367.03,1197.737c4.903,-87.465 47.733,-164.522 112.349,-219.147c63.367,-53.654 148.658,-86.447 241.719,-86.447c92.969,0 178.26,32.793 241.673,86.447c64.569,54.625 107.4,131.683 112.349,219.055c4.903,89.87 -31.221,173.357 -94.588,235.243c-64.616,62.951 -156.521,102.451 -259.434,102.451c-102.913,0 -195.003,-39.5 -259.573,-102.451c-63.413,-61.887 -99.444,-145.374 -94.495,-235.151Z" style="fill:#265787;fill-rule:nonzero;"/><path d="M803.204,1374.47c0.601,34.227 11.517,100.739 27.891,152.682c34.412,109.944 92.784,211.654 174.004,301.293c83.348,92.136 185.984,166.141 304.531,218.685c124.606,55.18 259.619,83.302 399.859,83.071c140.008,-0.185 275.021,-28.862 399.627,-84.458c118.547,-53.052 221.09,-127.381 304.3,-219.564c81.174,-90.009 139.453,-191.904 173.958,-301.848c17.345,-55.55 28.307,-111.933 32.701,-168.5c4.302,-55.735 2.498,-111.563 -5.412,-167.344c-15.449,-108.695 -53.052,-210.683 -110.961,-303.652c-52.96,-85.43 -121.23,-160.221 -202.404,-223.171l0.185,-0.139l-819.19,-628.996c-0.74,-0.555 -1.341,-1.156 -2.128,-1.665c-53.746,-41.258 -144.125,-41.119 -203.236,0.231c-59.759,41.813 -66.605,110.961 -13.413,154.578l-0.231,0.231l341.672,277.843l-1041.39,1.11l-1.388,0c-86.077,0.093 -168.824,56.568 -185.198,127.936c-16.836,72.71 41.628,133.024 131.128,133.348l-0.139,0.324l527.841,-1.018l-941.899,722.983c-1.203,0.879 -2.498,1.804 -3.608,2.683c-88.852,68.038 -117.576,181.174 -61.609,252.773c56.799,72.802 177.566,72.941 267.343,0.416l514.058,-420.719c0,0 -7.493,56.799 -6.892,90.887Zm1320.944,190.193c-105.92,107.909 -254.207,169.101 -414.66,169.425c-160.683,0.278 -308.971,-60.36 -414.891,-168.084c-51.757,-52.497 -89.777,-112.904 -113.228,-177.242c-22.988,-63.228 -31.915,-130.341 -25.994,-198.056c5.597,-66.188 25.3,-129.324 56.753,-186.446c30.897,-56.151 73.45,-106.891 125.994,-149.814c102.96,-83.903 234.041,-129.324 371.135,-129.509c137.233,-0.185 268.222,44.819 371.274,128.445c52.451,42.738 94.958,93.293 125.855,149.351c31.591,57.076 51.156,119.981 56.984,186.354c5.828,67.622 -3.099,134.643 -26.087,197.917c-23.497,64.523 -61.378,124.93 -113.135,177.658Z" style="fill:#ea7600;fill-rule:nonzero;"/></svg>