<?xml version="1.0" encoding="UTF-8" standalone="no"?>
<!DOCTYPE svg PUBLIC "-//W3C//DTD SVG 1.1//EN" "http://www.w3.org/Graphics/SVG/1.1/DTD/svg11.dtd">
<svg width="100%" height="100%" viewBox="0 0 325 368" version="1.1" xmlns="http://www.w3.org/2000/svg" xmlns:xlink="http://www.w3.org/1999/xlink" xml:space="preserve" xmlns:serif="http://www.serif.com/" style="fill-rule:evenodd;clip-rule:evenodd;stroke-linejoin:round;stroke-miterlimit:2;">
    <g transform="matrix(0.666667,0,0,0.666667,0,0)">
        <path id="path8" d="M243.678,551.724L466.667,422.989L381.609,373.563L294.253,424.138C290.805,426.437 287.356,424.138 287.356,419.54L287.356,300C287.356,296.552 289.655,293.103 291.954,291.954L395.402,232.184C398.851,229.885 402.299,232.184 402.299,236.782L402.299,337.931L487.356,387.356L487.356,128.736L243.678,270.115L243.678,551.724Z" style="fill-rule:nonzero;"/>
    </g>
    <g transform="matrix(0.666667,0,0,0.666667,0,0)">
        <path id="path10" d="M265.517,0L265.517,98.851L352.874,149.425C356.322,151.724 356.322,156.322 352.874,157.471L249.425,217.241C245.977,219.54 242.529,218.391 240.23,217.241L136.782,157.471C133.333,156.322 133.333,150.575 136.782,149.425L224.138,98.851L224.138,0L0,128.736L243.678,270.115L487.356,128.736L265.517,0Z" style="fill:rgb(128,128,128);fill-rule:nonzero;"/>
    </g>
    <g transform="matrix(0.666667,0,0,0.666667,0,0)">
        <path id="path12" d="M194.253,424.138L106.897,373.563L21.839,422.989L244.828,551.724L244.828,270.115L0,128.736L0,386.207L0,385.057L0,386.207L85.057,336.782L85.057,235.632C85.057,232.184 89.655,229.885 91.954,231.034L195.402,290.805C198.851,293.103 200,295.402 200,298.851L200,418.391C201.149,422.989 197.701,426.437 194.253,424.138Z" style="fill:rgb(76,76,76);fill-rule:nonzero;"/>
    </g>
</svg>
